<?xml version="1.0" encoding="utf-8"?>
<!-- Generator: Adobe Illustrator 17.0.0, SVG Export Plug-In . SVG Version: 6.00 Build 0)  -->
<!DOCTYPE svg PUBLIC "-//W3C//DTD SVG 1.1//EN" "http://www.w3.org/Graphics/SVG/1.1/DTD/svg11.dtd">
<svg version="1.1" id="Layer_1" xmlns="http://www.w3.org/2000/svg" xmlns:xlink="http://www.w3.org/1999/xlink" x="0px" y="0px"
	 width="353px" height="93px" viewBox="0 0 353 93" enable-background="new 0 0 353 93" xml:space="preserve">
<g>
	<path fill="#404041" d="M90.8,55.268h-0.114l-6.551-21.169h-7.99v27.682h5.244V48.906c0-1.478-0.119-4.425-0.359-8.843h0.17
		l6.665,21.718h5.377l7.139-21.68h0.17c-0.151,3.484-0.236,5.63-0.255,6.438c-0.018,0.808-0.028,1.521-0.028,2.14v13.102h5.471
		V34.099h-7.99L90.8,55.268z"/>
	<path fill="#404041" d="M120.931,33.986l-9.77,27.795h6.324l2.007-6.589h10.092l2.007,6.589h6.324l-9.808-27.795H120.931z
		 M120.968,50.269c1.969-6.375,3.162-10.37,3.579-11.986c0.101,0.454,0.268,1.073,0.501,1.856c0.234,0.783,1.279,4.159,3.134,10.13
		H120.968z"/>
	<polygon fill="#404041" points="140.63,38.984 148.146,38.984 148.146,61.781 154.015,61.781 154.015,38.984 161.532,38.984 
		161.532,34.099 140.63,34.099 	"/>
	<polygon fill="#404041" points="165.024,38.984 172.54,38.984 172.54,61.781 178.41,61.781 178.41,38.984 185.927,38.984 
		185.927,34.099 165.024,34.099 	"/>
	<path fill="#404041" d="M212.827,34.099h-8.689v27.682h7.839c4.898,0,8.644-1.212,11.236-3.635
		c2.594-2.424,3.892-5.914,3.892-10.471c0-4.279-1.251-7.611-3.75-9.997C220.855,35.292,217.345,34.099,212.827,34.099z
		 M212.524,56.934h-2.517V38.909h3.123c5.251,0,7.876,2.972,7.876,8.917C221.006,53.897,218.179,56.934,212.524,56.934z"/>
	<rect x="234.779" y="34.099" fill="#404041" width="5.869" height="27.682"/>
	<path fill="#404041" d="M268.83,47.201c0,1.489,0.094,4.033,0.284,7.631h-0.133l-12.023-20.733h-7.403v27.682h5.245V48.754
		c0-1.579-0.12-4.216-0.36-7.915h0.17l12.042,20.942h7.461V34.099h-5.283V47.201z"/>
	<path fill="#404041" d="M293.525,51.121h5.245v5.774c-1.262,0.252-2.506,0.379-3.73,0.379c-2.348,0-4.136-0.791-5.368-2.375
		c-1.23-1.585-1.846-3.879-1.846-6.883c0-2.878,0.763-5.168,2.29-6.873c1.527-1.703,3.56-2.556,6.098-2.556
		c2.183,0,4.285,0.505,6.304,1.515l1.951-4.696c-2.639-1.136-5.377-1.704-8.218-1.704c-4.531,0-8.075,1.25-10.631,3.749
		c-2.556,2.499-3.834,5.983-3.834,10.451c0,4.595,1.102,8.119,3.304,10.574c2.203,2.457,5.393,3.684,9.571,3.684
		c1.641,0,3.248-0.117,4.819-0.351c1.572-0.233,3.248-0.64,5.027-1.221V46.236h-10.982V51.121z"/>
	<polygon fill="#404041" points="318.905,34.099 313.035,34.099 313.035,61.781 330.132,61.781 330.132,56.934 318.905,56.934 	"/>
	<polygon fill="#404041" points="352.823,38.909 352.823,34.099 336.881,34.099 336.881,61.781 352.823,61.781 352.823,56.934 
		342.75,56.934 342.75,49.795 352.123,49.795 352.123,44.986 342.75,44.986 342.75,38.909 	"/>
	<path fill="#404041" d="M41.967,15.913V10.44c0-0.906-0.735-1.641-1.641-1.641c-0.906,0-1.641,0.735-1.641,1.641v3.782
		c-4.855-2.213-10.242-3.456-15.917-3.456c-3.111,0-6.179,0.394-9.158,1.121V1.651c0-0.906-0.735-1.641-1.641-1.641
		c-0.906,0-1.641,0.735-1.641,1.641v11.194c-2.867,0.978-5.627,2.275-8.209,3.917c-0.765,0.486-0.99,1.5-0.504,2.265
		s1.501,0.99,2.265,0.504c2.043-1.299,4.205-2.369,6.448-3.214V20.3c-1.536,0.661-3.028,1.432-4.451,2.337
		c-0.318,0.202-0.412,0.623-0.209,0.942c0.202,0.316,0.623,0.411,0.942,0.209c1.196-0.76,2.438-1.431,3.718-2.011v43.951
		c0,0.906,0.735,1.641,1.641,1.641c0.906,0,1.641-0.735,1.641-1.641V20.532c2.95-0.941,6.042-1.443,9.186-1.443
		c5.827,0,11.27,1.663,15.889,4.533V60.14c0,0.906,0.735,1.641,1.641,1.641c0.906,0,1.641-0.735,1.641-1.641V25.972
		c6.731,5.544,11.031,13.938,11.031,23.319c0,14.718-10.585,27.004-24.541,29.662V41.66c0-0.906-0.735-1.641-1.641-1.641
		s-1.641,0.735-1.641,1.641v37.73c-0.786,0.062-1.578,0.102-2.379,0.102c-0.377,0-0.682,0.305-0.682,0.682
		c0,0.377,0.305,0.682,0.682,0.682c0.801,0,1.593-0.04,2.379-0.099v3.684c-0.796,0.054-1.597,0.091-2.407,0.091
		c-0.906,0-1.641,0.735-1.641,1.641c0,0.906,0.735,1.641,1.641,1.641c0.809,0,1.61-0.033,2.407-0.083v3.626
		c0,0.906,0.735,1.641,1.641,1.641s1.641-0.735,1.641-1.641v-3.967c18.554-2.759,32.835-18.792,32.835-38.101
		C61.292,35.037,53.504,22.576,41.967,15.913z M22.795,17.725c-3.138,0-6.228,0.473-9.186,1.371v-3.825
		c2.967-0.797,6.04-1.222,9.158-1.222c5.726,0,11.132,1.381,15.917,3.815v4.17C34.014,19.3,28.586,17.725,22.795,17.725z
		 M28.457,84.068v-3.729c14.712-2.677,25.905-15.575,25.905-31.048c0-10.199-4.867-19.279-12.395-25.053V19.76
		c9.648,6.294,16.043,17.177,16.043,29.531C58.01,66.787,45.193,81.339,28.457,84.068z"/>
</g>
</svg>
