<svg class="hide">
  <defs>

    <g id="shape-logo">

	<path d="M89.957,55.576h-0.114l-6.589-21.291h-8.036v27.842h5.274V49.178c0-1.486-0.12-4.45-0.361-8.894h0.171
		l6.703,21.843h5.408l7.18-21.805h0.171c-0.152,3.504-0.237,5.662-0.257,6.475c-0.019,0.813-0.028,1.529-0.028,2.152v13.178h5.503
		V34.285h-8.036L89.957,55.576z"/>
	<path d="M120.262,34.172l-9.826,27.955h6.36l2.019-6.627h10.15l2.019,6.627h6.36l-9.864-27.955H120.262z
		 M120.3,50.549c1.98-6.412,3.181-10.43,3.6-12.055c0.102,0.457,0.27,1.079,0.504,1.866c0.235,0.787,1.286,4.183,3.152,10.188H120.3
		z"/>
	<polygon points="140.074,39.199 147.634,39.199 147.634,62.127 153.537,62.127 153.537,39.199 161.098,39.199 
		161.098,34.285 140.074,34.285 	"/>
	<polygon points="164.61,39.199 172.169,39.199 172.169,62.127 178.073,62.127 178.073,39.199 185.633,39.199 
		185.633,34.285 164.61,34.285 	"/>
	<path d="M212.688,34.285h-8.739v27.842h7.884c4.926,0,8.693-1.219,11.301-3.656
		c2.609-2.438,3.914-5.948,3.914-10.531c0-4.304-1.258-7.655-3.771-10.055S217.233,34.285,212.688,34.285z M212.383,57.252h-2.531
		V39.123h3.141c5.281,0,7.922,2.989,7.922,8.969C220.914,54.198,218.071,57.252,212.383,57.252z"/>
	<rect x="234.767" y="34.285" width="5.903" height="27.842"/>
	<path d="M269.014,47.463c0,1.498,0.095,4.057,0.286,7.675h-0.134l-12.093-20.853h-7.445v27.842h5.275V49.026
		c0-1.588-0.121-4.24-0.362-7.961h0.171l12.111,21.063h7.504V34.285h-5.313V47.463z"/>
	<path d="M293.852,51.406h5.275v5.808c-1.27,0.254-2.521,0.381-3.752,0.381c-2.361,0-4.16-0.796-5.398-2.389
		c-1.237-1.594-1.856-3.901-1.856-6.923c0-2.895,0.768-5.198,2.304-6.913c1.536-1.713,3.58-2.57,6.133-2.57
		c2.195,0,4.31,0.508,6.341,1.523l1.962-4.723c-2.654-1.143-5.408-1.714-8.266-1.714c-4.558,0-8.121,1.257-10.692,3.771
		c-2.57,2.514-3.856,6.018-3.856,10.512c0,4.621,1.108,8.166,3.323,10.635c2.216,2.471,5.424,3.705,9.626,3.705
		c1.65,0,3.267-0.118,4.847-0.354c1.581-0.234,3.267-0.644,5.056-1.228V46.492h-11.045V51.406z"/>
	<polygon points="319.377,34.285 313.474,34.285 313.474,62.127 330.669,62.127 330.669,57.252 319.377,57.252 	"/>
	<polygon points="353.491,39.123 353.491,34.285 337.457,34.285 337.457,62.127 353.491,62.127 353.491,57.252 
		343.361,57.252 343.361,50.073 352.787,50.073 352.787,45.236 343.361,45.236 343.361,39.123 	"/>
	<path class="shape-icon" d="M40.843,15.995v-5.504c0-0.911-0.739-1.65-1.65-1.65s-1.651,0.739-1.651,1.65v3.804
		c-4.883-2.225-10.301-3.476-16.009-3.476c-3.129,0-6.215,0.396-9.211,1.128V1.65c0-0.911-0.739-1.65-1.65-1.65
		C9.76,0,9.021,0.739,9.021,1.65v11.259c-2.883,0.983-5.659,2.288-8.256,3.94c-0.77,0.489-0.996,1.509-0.507,2.278
		s1.509,0.996,2.278,0.507c2.054-1.307,4.229-2.382,6.485-3.233v4.006c-1.545,0.665-3.045,1.44-4.477,2.351
		c-0.32,0.204-0.414,0.627-0.21,0.947c0.203,0.318,0.626,0.413,0.947,0.21c1.202-0.765,2.452-1.439,3.74-2.023v44.204
		c0,0.911,0.739,1.651,1.651,1.651c0.911,0,1.65-0.739,1.65-1.651V20.64c2.968-0.946,6.077-1.451,9.239-1.451
		c5.86,0,11.335,1.673,15.981,4.559v36.728c0,0.911,0.739,1.65,1.651,1.65s1.65-0.739,1.65-1.65V26.112
		c6.77,5.576,11.094,14.019,11.094,23.453c0,14.803-10.646,27.159-24.682,29.833V41.89c0-0.911-0.739-1.651-1.651-1.651
		s-1.65,0.739-1.65,1.651v37.948c-0.791,0.062-1.587,0.103-2.393,0.103c-0.379,0-0.686,0.307-0.686,0.686
		c0,0.379,0.307,0.686,0.686,0.686c0.806,0,1.602-0.04,2.393-0.1v3.705c-0.801,0.054-1.606,0.092-2.421,0.092
		c-0.911,0-1.651,0.739-1.651,1.651c0,0.911,0.739,1.65,1.651,1.65c0.814,0,1.619-0.034,2.421-0.083v3.647
		c0,0.911,0.739,1.65,1.65,1.65s1.651-0.739,1.651-1.65v-3.989c18.661-2.775,33.025-18.9,33.025-38.321
		C60.28,35.229,52.447,22.696,40.843,15.995z M21.561,17.818c-3.156,0-6.264,0.476-9.239,1.379v-3.847
		c2.984-0.801,6.075-1.229,9.211-1.229c5.759,0,11.196,1.389,16.009,3.837v4.194C32.844,19.401,27.385,17.818,21.561,17.818z
		 M27.255,84.543v-3.751C42.052,78.1,53.309,65.127,53.309,49.565c0-10.258-4.895-19.39-12.466-25.197v-4.503
		c9.704,6.331,16.136,17.276,16.136,29.701C56.979,67.162,44.088,81.798,27.255,84.543z"/>
    <g>

  </defs>
</svg>